<svg width="0" height="0" class="hidden">
  <symbol  xmlns="http://www.w3.org/2000/svg" viewBox="0 0 35 35" id="calendar">
    <path fill-rule="evenodd" clip-rule="evenodd" d="M25.5 9.685h-2.44V8.56a.56.56 0 00-1.12 0v1.125h-3.38V8.56a.56.56 0 00-1.12 0v1.125h-3.38V8.56a.56.56 0 00-1.12 0v1.125H10.5a1.5 1.5 0 00-1.5 1.5V24.5a1.5 1.5 0 001.5 1.5h15a1.5 1.5 0 001.5-1.5V11.185a1.5 1.5 0 00-1.5-1.5zm.37 14.815a.37.37 0 01-.37.375h-15a.378.378 0 01-.38-.375V11.185a.378.378 0 01.38-.375h2.44v1.125a.56.56 0 001.12 0V10.81h3.38v1.125a.56.56 0 001.12 0V10.81h3.38v1.125a.56.56 0 001.12 0V10.81h2.44a.37.37 0 01.37.375V24.5zm-12.93-9.751h2.25v1.687h-2.25v-1.687zm0 2.812h2.25v1.688h-2.25v-1.688zm0 2.813h2.25v1.688h-2.25v-1.688zm3.93 0h2.25v1.688h-2.25v-1.688zm0-2.813h2.25v1.688h-2.25v-1.688zm0-2.812h2.25v1.687h-2.25v-1.687zm3.94 5.625h2.25v1.688h-2.25v-1.688zm0-2.813h2.25v1.688h-2.25v-1.688zm0-2.812h2.25v1.687h-2.25v-1.687z" ></path>
    <rect x=".25" y=".25" width="34.5" height="34.5" rx="2.75" stroke="#C4C4C4" stroke-width=".5" fill="none"></rect>
  </symbol>
  <symbol  xmlns="http://www.w3.org/2000/svg" viewBox="0 0 27 26" id="Facebook">
    <path fill-rule="evenodd" clip-rule="evenodd" d="M24.689 25.494h-7.04v-8.791h4.4v-4.395h-4.4V9.67a.885.885 0 01.88-.879h3.96v-4.4h-4.4a5.272 5.272 0 00-4.83 5.275v2.638h-3.52v4.394h3.52v8.792H2.709a1.763 1.763 0 01-1.76-1.759V1.758A1.763 1.763 0 012.71 0h21.98a1.762 1.762 0 011.75 1.758v21.977a1.762 1.762 0 01-1.75 1.759z" ></path>
  </symbol>
  <symbol  xmlns="http://www.w3.org/2000/svg" viewBox="0 0 31 27" id="Heart">
    <path d="M3.53 16.92l-.002-.001C1.898 14.795.747 12.282.53 9.674.15 4.933 3.27.5 8.23.5c2.939 0 5.5 1.585 6.862 3.962l.44.766.43-.771c1.31-2.345 3.891-3.932 6.834-3.932 4.98 0 8.055 4.429 7.672 9.173-.215 2.605-1.388 5.094-2.998 7.223-1.904 2.493-4.305 4.466-6.886 6.288l-.006.003-.026.019-.1.069-.368.255-1.212.841-2.783 1.933a1.017 1.017 0 01-1.133-.003 898.191 898.191 0 00-4.013-2.772l-.371-.255-.1-.07-.027-.017-.007-.005c-2.583-1.823-5.031-3.82-6.909-6.286z"  stroke="#FC9B09"></path>
  </symbol>
  <symbol  xmlns="http://www.w3.org/2000/svg" viewBox="0 0 26 26" id="Instragram">
    <path fill-rule="evenodd" clip-rule="evenodd" d="M23.379 0H2.989a2.559 2.559 0 00-2.55 2.55v20.397a2.559 2.559 0 002.55 2.55h20.39a2.553 2.553 0 002.55-2.55v-20.4A2.552 2.552 0 0023.38 0zm-10.19 7.648a5.1 5.1 0 11-5.1 5.1 5.11 5.11 0 015.1-5.101v.001zm-9.56 15.3a.6.6 0 01-.64-.637V11.472h2.68a4.257 4.257 0 00-.13 1.275 7.645 7.645 0 0015.29 0 4.56 4.56 0 00-.12-1.275h2.67v10.835a.6.6 0 01-.63.637H3.629v.004zM23.379 5.74a.6.6 0 01-.63.637h-2.55a.602.602 0 01-.64-.637V3.19a.6.6 0 01.64-.636h2.55a.6.6 0 01.63.636v2.55z" ></path>
  </symbol>
  <symbol  xmlns="http://www.w3.org/2000/svg" viewBox="0 0 26 16" id="vk">
    <path fill-rule="evenodd" clip-rule="evenodd" d="M25.06 1.349a.624.624 0 01.36.9c-.12.233-.25.46-.37.687a.49.49 0 01-.22.4A38.377 38.377 0 0121 9.026a.03.03 0 00-.02.021c1.67 1.183 5.66 4.2 3.71 5.9-1.02.893-3.98.743-5.12.237a8.776 8.776 0 01-1.831-1.255c-.98-.79-1.25-.744-2.13.1-1.13 1.085-1.76 1.772-3.43 1.575a10.71 10.71 0 01-5.35-2.613A21.618 21.618 0 01.01 1.749a.48.48 0 01.45-.573c.02 0 .02-.01.04-.015A16.937 16.937 0 015.29.99a.62.62 0 01.34.155.3.3 0 01.12.088c1.23 1.482 1.77 3.439 3.05 4.88.62.7.82.584.88-.377.029-.413.032-.827.01-1.24-.06-1.078-.44-2.023-.6-3.072a.535.535 0 01.07-.4.553.553 0 01.47-.47 44.786 44.786 0 014.58-.062.465.465 0 01.52.18.33.33 0 01.23.248c.18.942.24 1.903.18 2.86l-.03 1.385c-.01.263-.01.527-.01.79-.1.486.09.67.56.558.79.087 1-.584 1.39-1.2.23-.366.45-.743.66-1.125.5-.9.86-1.843 1.32-2.758a.46.46 0 01.37-.268.376.376 0 01.15-.047 23.642 23.642 0 015.51.234z" ></path>
  </symbol>
</svg>